<?xml version="1.0" encoding="UTF-8"?>
<svg id="_Слой_1" data-name="Слой 1" xmlns="http://www.w3.org/2000/svg" viewBox="0 0 687.86 1080">
  <defs>
    <style>
      .cls-1 {
        fill: #fff;
      }
    </style>
  </defs>
  <path class="cls-1" d="m15.24,1078.1c7.24.07,14.46-2.96,21.69-1.23,1.78.38,3.51.97,5.32,1.22,3.63.49,7.27-.89,10.34-2.74,1.52-.97,3.01-2.11,3.97-3.66,1.03-1.6.48-3.58,1.26-5.26,1.83-3.15,3.84-6.18,5.66-9.33,2.48-4.84,5.93-9.4,6.94-14.73.07-.94.73-1.7,1.27-2.4,1.65-2.08,3.5-4.35,3.82-7.08.3-3.64-2.3-6.97-1.82-10.67.45-5.55,5.22-9.74,5.07-15.4.23-1.81.79-3.66.5-5.38-.09-.43-.27-.85-.61-1.14-2.38-2.11-4.45-4.71-5.46-7.76-.51-1.79-.05-3.69.51-5.41.63-1.65,1.51-3.59,3.33-4.21,1.59-.55,3.83-.51,4.81-2.06.44-.79.11-1.72-.18-2.56-1.36-3.35-3.31-6.55-6-8.95-1.1-1.5-1.61-3.33-1.8-5.16,0-.46-.08-.94.22-1.41.44-.36.92-.32,1.37-.39,1.35-.12,2.73-.04,4.06-.33.42-.1.88-.33.62-.73-.82-1.58-1.97-3.03-3.04-4.49-3.35-4.26-6.66-8.69-10.7-12.32-.74-.51-1.46-1.18-1.88-2.02-.44-.84-.59-1.78-.66-2.68-.09-.9-.06-1.85-.67-2.51-2.94-3.47-6.18-6.68-8.88-10.36-.53-.75-1.06-1.5-1.43-2.36-.91-2.7.28-5.5.8-8.12.65-1.88-.47-3.42-1.67-4.74-3.77-4.79-10.16-2.61-15.33-3-1.89-.21-3.42-1.41-4.9-2.48-3.19-2.59-5.2-5.1-4.5-9.45.13-1.48.76-4.25-1.59-3.93-4.41.36-9.46,2.17-13.45-.53-2.15-2.23-.55-5.45-.14-7.96.14-.85-.82-1.28-1.63-1.53-1.26-.47-2.93-.48-3.77-1.75-.59-1.35.08-2.82.22-4.15.24-1.05-.42-1.46-1.11-2.07-5.34-4.24-9.23-11.17-2.37-16.14,8.27-5.36,17.94-.19,26.87-1.11,0,0,5.42-.42,5.42-.42,0,0,5.35-.94,5.35-.94,3.95-.98,7.74-2.89,11.87-3.22,1.58-.27,2.62,1.4,3.07,2.64,1.36,3.43,1.78,7.13,3.27,10.38.39.78.88,1.56,1.65,1.86.8.33,1.69.48,2.58.57,3.51.27,7.32-.02,10.65-1.13.73-.3,1.27-1.13,1.92-1.76,1.24-1.38,3-2.4,4.87-2.58,1.89-.31,4.08.26,4.88,2.19.83,1.59.88,3.6,1.97,4.95.67.55,1.41,1.12,2.18,1.52.77.4,1.64.59,2.43.32.41-.14.75-.31.91-.66,1.01-2.91-2.13-6.62.28-9.28.84-1.04,2.18-1.7,2.14-3.12-.01-3,0-6.54-1.95-8.97-.55-.66-1.29-1.14-2.12-1.37-.87-.11-1.9-.69-2.42-1.46-1.14-1.54-1.66-3.36-2.06-5.14-.73-3.6-.85-7.32-.32-10.96.32-1.82.71-3.73,1.97-5.19,4.06-3.62,11.57-2.52,15.61.73,3.08,2.35,3.53,6.58,3.63,10.16.04,1.83-.16,3.67,0,5.43.09.87.33,1.73.92,2.29.59.57,1.45.82,2.32.93,3.55.35,7.16-.62,10.85-.6,4.01-.32,6.18,3.86,9.1,5.77,1.41.85,3.37,1.91,3.73-.56.56-3.03-.36-6.67,1.36-9.48,1.54-1.71,3.29-3.21,5.04-4.7,2.16-1.66,4.36-3.68,7.17-4.13,2.57-.15,5.58-.27,8.11-.76,1.95.13,2.53-1.91,3.64-3.36.54-.75,1.24-1.5,2.19-1.85,3.41-1.32,4.78,2.6,6.57,4.3.61.59,1.41.91,2.23.76.81-.11,1.41-.73,1.78-1.51.86-1.65.85-3.61,2.24-5.05.38-.35.91-.58,1.42-.6,1.34.06,2.69-.09,3.93-.55.96-.39,1.96-1,2.07-2.04,0,0,.02-.66.02-.66l.04-1.37c.06-2.68.08-5.46-.13-8.1-.76-2.7-3.6-3.74-5.51-5.61-.67-.63-1.38-1.43-1.44-2.52-.02-.5.05-1.02.34-1.5.29-.48.8-.75,1.26-.9.92-.3,1.86-.34,2.46-.83.58-.47.69-1.41.67-2.26-.11-2.56-1.38-5.68.01-8.2,2.64-4.76,9.19-7.93,14.43-5.71,1.73.79,2.92,2.37,4.02,3.82,2.57,3.28,3.7-.15,5.9-1.86.78-.61,1.88-.82,2.82-.67,1.93.16,3.27,1.83,4.85,2.57.36.16.83.24,1.13.18.3-.06.56-.37.75-.74.76-1.54,1.09-3.43,2.02-5.07.85-1.7,2.63-3.01,4.55-3.16,3.8-.35,7.31,1.51,10.8.85,1.76-.35,3.21-1.34,2.94-3.32-.18-1.78-.39-3.93.84-5.47.54-.77,1.26-1.49,2.19-1.88,1.82-.73,3.72-.09,5.55-.06,2.97.3,2.75-7.11,2.97-9.14.08-2.87,2.11-5.28,4.15-7.11,2.87-2.74,7.02-2.58,10.62-1.81,1.44.28,3.8.97,4.18-.98-.07-1.62-2.08-2.88-2.58-4.54-1.51-5.19,3.44-9.24,8.29-9.05.47-.01.89-.02,1.3-.08.41-.06.81-.23.88-.44.12-.2-.03-.61-.23-.96-1.45-2.33-3.89-3.79-5.5-6.02-.29-.44-.35-.98-.37-1.48-.09-1.88.17-3.72.66-5.52.95-3.92,4.02-7.2,8.29-5.71,1.85.61,3.24,1.98,4.58,3.15,3.12,3.06,6.11,1.82,9.05-.94,2.69-2.45,4.79-5.62,8.12-7.38,1.67-.94,3.67-.92,5.51-.83,3.65.22,7.24.91,10.86,1.29,2.31.13,5.78.81,7.49-.95,1.41-2.27,1.19-5.14,1.54-7.75.33-2.56.46-6.16,3.1-7.61,1.75-.77,4.18-.63,5.49.93.66.75,1.02,1.64,1.41,2.44.38.81.8,1.58,1.47,2,.65.43,1.55.46,2.38.37,1.94-.24,2.77-1.82,4.36-2.87.59-.34,1.45-.52,2.11-.5,1.05-.18,1.94-.83,2.85-1.45,5.89-4.69,11.03-7.77,17.09-1.41.71.59,1.51.26,2.33.18,3.92-.68,8.23-1.47,12.23-.25.19,0,.2-.03.19-.03.02-.04.02-.23-.05-.41-1.05-3.37-6.69-9.04-4.82-12.62,1.17-1.7,3.27-1.93,5.02-2.52.81-.25,1.77-.61,1.86-1.19.09-.64-.42-1.49-.92-2.17-1.59-2.18-3.76-4-5.21-6.35-1.41-2.49-.61-5.56-.7-8.27.19-5.44.54-10.89.14-16.32-.17-1.68-.32-3.63-1.15-5.09-2.43-4.23-10.25-1.93-9.62-8.35-.07-8.89-.17-21.07-.25-30.02,0-1.13-.03-3.07-.03-4.1.68-5.95,3.07-11.57,5.63-16.94,1.72-2.99,3.63-7.29,7.32-8.18,5.51-.67,10.88,1.26,16.36,1.18,1.76-.04,3.58-.28,4.64-1.66,1.14-1.32,2.01-2.92,2.83-4.52,1.63-3.25,2.92-6.64,4.42-9.96.7-1.72,1.78-3.61,3.61-4.28,3.37-1.39,8.18-1.75,10.64,1.45,1.09,1.71,1.21,3.67,1.26,5.5.03,3.67-.68,7.28-.95,10.9-.06,1.83-.14,3.65-.36,5.46-.38,3.62-.81,7.23-.98,10.85.04,2.52-.44,5.52,1.04,7.61,2.03,1.64,5.06.93,7.59,1.07,1.88.07,4.15.06,5.35,1.86,2.52,5.86-1.01,14.43-7,16.68-2.64.93-5.41,1.2-8.15,1.52-1.62.28-3.68.18-4.96,1.22-.57.49-.74,1.27-.72,2.14l-.02,2.73c.1,2.48-.13,5.63,2.35,6.82,4.26.89,8.98.93,13.35.52,3.01-.38,6.27-1.02,8.37-3.34,3.86-4.48,5.76-7.76,12.12-8.35,4.59-1.58,2.11-11.99,7.54-11.95.49.02.98.09,1.47.25,1.5.4,2.4,1.87,2.92,3.19.17.41.42.73.49.69.2,0,.67-.16,1.01-.35,1.2-.68,2.53-1.74,2.93-3.06.02-.17.02-.2-.06-.39-.64-1.23-1.71-2.04-2.21-3.48-1.56-4.96,7.51-2.23,6.95-6.48-.38-2.62-1.47-5.14-2.84-7.4-.95-1.48-2.05-2.96-3.59-3.58-.78-.34-1.59-.35-2.61-.58-.54-.11-1.16-.64-1.29-1.2-.35-1.36-.47-2.74-.78-4.06-.31-1.21-.52-2-1.34-2.87-1.29-2.22-.04-5.19-.97-7.43-.3-.62-1.09-1.16-1.8-1.68-2.86-2.01-6.94-4.24-7.18-8.22-.57-5.42.98-10.97-.34-16.19-2.43-4.64-4.72-10.04-8.35-13.77-1.27-1.5-3.35-1.75-4.17-3.71-.87-2.53,1.35-4.45,1.99-6.62.22-1.25-.45-2.39-.97-3.57-.82-1.63-1.59-3.64-1.21-5.5.36-2.74,1.06-5.36,1.44-8.06.12-.5.13-1.3.05-1.74-.62-.58-1.79-.36-2.75-.37-1.46-.02-2.91.41-4.34-.35-.49-.4-.67-.83-.9-1.34-.69-1.82-1.05-3.56-1.17-5.51-.24-4.11.15-9.14-1.11-12.85-1.83-.28-3.11.61-3.26,2.48-.2,3.55.56,7.3.21,10.89-.11,1.36-.44,3.07-1.59,4.01-2.98,3.22-6.19,6.34-11,4.72-1.31-.36-2.35-1.54-3.47-2.04-.22-.07-.61.07-1,.25-1.52.76-3.05,1.89-4.02,3.22-.22.36-.37.64-.33.99.1,1.34.44,2.68.51,4.05.41,5.32-3.33,4.43-7.18,4.31-.41,0-.89.07-1.01.18-.06-.05-.05.36.16.63.92,1.27,2.89,1.8,3.32,3.58.22,2.58.24,5.71-2.19,7.31-2.28,1.75-5.58,1.19-7.94,2.05-1.56.62-2.81,2-4.02,3.3-1.63,1.66-2.79,3.71-4.72,5.14-2.9.87-6.66-1.43-8.57,1.91-1.19,1.75-1.45,4.63-3.51,5.98-1.31.75-2.89.52-4.29.46-3.68-.35-7.28-1.18-10.73-2.48-5.43-2.24-6.25-4.52-12.49-1.79-.46.13-.97.32-1.62.11-.57-.22-.93-.6-1.25-.96-1.23-1.52-1.96-3.24-2.43-5.08-.23-.85-.26-1.95.04-2.75-.01-.06-.02-.1-.16-.18-1.66-.7-3.74-.11-5.31-1.27-1.89-1.73-3.27-3.93-4.65-6.06-1.45-2.32-2.91-4.87-2.94-7.72-.39-3.09-1.1-6.29-1.38-9.36-.03-.13-.45-.43-.81-.61-1.58-.9-3.9-1.27-4.68-3.19-.2-.46.05-1.09.12-1.55.51-2.27.68-4.74,2.27-6.6,2.17-1.89,5.5-2.06,8.22-1.51,1.23.23,2.56,1.07,3.72,1.14.16-.05.18-.05.28-.2.97-1.68,1.51-3.7,1.83-5.61.05-.72.3-1.67-.32-2.16-.57-.44-1.47-.57-2.29-.48-1.49.12-2.84,1-3.55,2.31-.74,1-1.95,1.57-3.05,1.95-2.48.8-5.01,1.04-7.58,1.05-1.3-.26-2.15-1.36-2.89-2.3-1.71-2.3-2.23-5.4-1.37-8.15.6-2.87,3.67-4.08,4.74-6.6.7-1.46.52-3.23,1.34-4.67.41-.59,1.28-.87,1.73-1.24.27-.25.32-.38.28-.9-.06-1.55-.12-3.86-.44-5.35-.63-1.61-.15-3.72-1-5.16-1.83-1.83-4.78-2.84-6.08-5.44-.46-.84-.51-1.88-.58-2.81-.19-2.77-.38-5.51.17-8.28.54-2.91,3.28-4.88,6.03-5.57,1.03-.21,3.54-.35,3.2-1.76-.55-1.23-.9-2.02-1.37-3.07-2.83-2.82.86-8.46-3.17-9.34-1.73-.55-3.83-1.36-4.53-3.27-.82-2.64-.99-6.11,1.17-8.16,2.76-2.3,5.68-4.64,8.3-7.08.48-.59,1.42-1.2,1.61-1.88.21-.84.2-1.71-.46-1.91-.39-.12-1.01-.14-1.37-.43-1.27-.92-1.49-2.61-1.59-4.02-.12-.92.26-2.04.81-2.8.77-1.34,2.11-2.34,2.42-3.84,0-.16-.02-.23-.11-.34-1.19-.93-3.27-.52-4.42-1.66-.25-.24-.27-.73-.25-.9.03-.95.2-1.92.65-2.81,1.42-2.97,5.29-2.22,7.77-1.38.2.04.34,0,.31,0,.34-1.29-1.17-2.56-1.76-3.74-.97-1.59-1.44-3.81-.26-5.59,2.75-3.06,7.39-1.15,10.77-.5,0,0,2.64.64,2.64.64.22.06.43.09.72.19,1.15.32,1.24,2,2.51,1.68.4-.08.64-.24.87-.57.99-1.64.77-3.91.92-5.8.06-.78.75-1.4,1.26-1.89,1.22-1.25,3.03-2.3,4.4-3.31,2.61-1.72,6.39-4.53,9.07-6.12,1.2-.67,2.49-1.6,3.92-1.65.59-.09,1.32.18,1.83-.05.07-.03.13-.14.17-.33.1-.42.04-.55-.28-.84-.73-.47-1.7-1.42-1.58-2.44-.06-1.78-.18-3.68.3-5.53.33-1.38,1.26-2.83,2.71-3.3,1.32-.4,2.61-.63,3.74-1.39.78-.42,1.22-1.12,1.51-1.94.86-1.69,1.67-3.32,3.07-4.67.19-.16.42-.34.74-.41,0,0,.68-.11.68-.11l1.36-.21c.46-.07.9-.14,1.32-.24.39-.09.87-.29.93-.44.45-1.67.34-3.74,1.47-5.28.63-.83,1.65-1.08,2.57-1.37,1.66-.56,3.75-.63,5.44-.88,0,0,1.37-.16,1.37-.16.47-.05.84-.08,1.22-.24,1.52-.62,2.16-2.59,3.6-3.85,2.64-2.63,10.49-2.5,12.61.29.79,1.72.96,4.26,3.49,3.5,1.5-.5,3.48-1.01,4.28-2.44.04-1.9-.29-4.27.33-6.17.92-1.5,2.86-1.74,4.3-2.46.41-.17.82-.35,1.19-.57.36-.21.71-.47.76-.74,0,0,.61-2.65.61-2.65.31-1.83,1.39-3.71,3.03-4.63.72-.54,1.55-1.01,1.88-1.7.56-1.14.63-2.8,1.63-3.83,1.58-1.6,4.04-2.42,4.92-4.48.64-1.19,1.13-2.49,1.8-3.69.18-.41.75-.86,1.2-.99.86-.35,1.8-.56,2.31-1.09.07-.07.27-.43.51-.56,1.51-.84,3.33-.62,4.95-.32,1.79.28,3.79,2.09,5.48.73,1.11-2.06,1.85-4.59,2.18-6.88-.09-1.84.12-3.64.38-5.45.23-1.8.56-3.63.66-5.37.04-.6.26-.99.44-1.43,1.41-2.9,3.24-5.54,5.18-8.1.71-.9,1.44-1.81,2.31-2.59.48-.41.87-.91,1.06-1.5.6-1.71-.74-3.96.88-5.35.68-.7,1.6-1.11,2.17-1.65.14-.15.2-.24.2-.39.01-.19,0-.41-.01-.63,0,0-.13-1.36-.13-1.36-.06-.92-.15-1.87.24-2.86,1.43-2.43,3.47-4.23,4.92-6.59,1.11-1.54.91-3.41,1.62-5.09.29-.87.65-1.72.88-2.56.36-1.17-.52-2.63-.47-3.93-.05-.18.06-.69.24-.85.79-.92,1.89-1.44,2.86-2.05,1.5-.96,3.18-1.76,4.28-3.13.25-.34.39-.67.35-1.05-.53-4.39-8.82-11.69-.46-11.96.45-.03.91-.04,1.3-.12.2-.04.36-.12.37-.17.4-2.82-.19-5.84.28-8.73.08-.89.55-1.88.99-2.63.43-.8.86-1.65,1.54-2.35,2.81-2.56,6.98-2.26,10.36-3.53.82-.28,1.75-.6,2.23-1.15.11-.16.15-.2.15-.47,0,0,.03-.68.03-.68.24-4.52.4-9.08.55-13.63.36-2.51,3.19-3.69,5.4-4.12,1-.12,1.81.33,2.74.31.87.06,1.47-.45,1.57-1.31.29-2.69-1.3-5.21-1.29-7.98-.07-.97.31-1.95.78-2.74.95-1.61,2.25-2.89,3.39-4.33.53-.7,1.11-1.45,1.15-2.22.17-1.86.24-3.78,1.34-5.42,1.39-1.2,2.29-2.85,4.04-3.81.83-.41,1.83-.33,2.69-.64,1.28-.39,2.61-1.14,4.02-1.07,0,0,1.37.07,1.37.07.91.05,1.81.09,2.7.06.44-.02.89-.05,1.3-.15.4-.08.83-.27.88-.5.07-.25-.07-.73-.28-1.06-.21-.36-.49-.69-.81-.97-3.19-2.55-5.3-.56-8.07,1.53-.41.26-1.03.43-1.51.28-1.41-.38-2.29-1.49-3.67-1.56-1.36.05-2.58.57-3.95.83-.95.12-1.76.12-2.64.46-1.67.57-3.35,1.37-4.6,2.58-2.03,2.42-4.67,4.46-7.37,6.07-1.09.88-1.64,2.05-2.67,3.06-.33.39-1,.56-1.45.49-2.93-.03-6.59-.56-9.11,1.14-1.35,1.21-2.13,2.87-3.34,4.25-1.08,1.46-3.9,2.59-5.05.56-.88-1.78-.56-3.72-.19-5.56.21-.91.51-1.88,1.14-2.58,1.44-1.82,3.45-2.96,4.75-4.79.49-2.11.42-4.61,1.38-6.66.19-.42.55-.89,1.01-1.11,2.14-.96,4.53-1.02,6.82-1.1,1.37.01,2.95-.04,4.11.85.4.3.69.7.99.97.62.59,1.52.31,2.21-.11.76-.44,1.48-.99,2.19-1.55,0,0,2.12-1.74,2.12-1.74.68-.62,1.5-1.22,2.39-1.43,0,0,2.61-.8,2.61-.8.61-.22,1.25-.4,1.75-.8.15-.1.17-.31.16-.22-.03-.05-.27-.14-.46-.17-.65-.13-1.32-.17-1.99-.2-2.71-.17-5.69.11-8.2-1.02-2.15-1.78-4.19-4.1-4.15-7.04.27-2.82,1.7-5.41,3.83-7.27,1.41-1.27,3.44-1.46,5.25-1.67,2.88-.44,5.36-.33,8.2-.54.57-.05,1.03.51,1.21.98.55,1.22.59,2.75,1.13,3.91.17.39.48.58.63.36.64-1.02.66-2.58.78-3.8,0,0,.06-2.72.06-2.72,0,0,.05-2.73.05-2.73.74-2.75,2.48-4.96,4.33-7.08.65-.66,1.35-1.3,2.25-1.69.95-.4,2.01-.18,2.84.31,1.63,1.03,2.59,3.28,1.63,5.09-.68,1.15-2,1.95-2.59,3.08-.05.17-.03.25.08.36.88.56,2.11.35,3.16.42,0,0,2.73-.05,2.73-.05.95.06,1.89-.16,2.81.28,1.99,1.19,3.84,2.99,4.29,5.34.09,1.28.04,2.78.81,3.82.26.33.55.51.98.45,2.2-.22,4.55-.52,6.52-1.47.37-.22.7-.46.66-.83.06-1.82.53-3.6.29-5.39-.09-.93-.89-1.29-1.76-1.09-1.35.31-2.78.49-4.13.12-1.47-.47-3.53-.81-4.11-2.51-.3-3.92.3-7.75.59-11.64-.01-.89.35-2.07,1.28-2.46,1.27-.65,2.77-.5,3.09-2.07.63-2.2.84-4.74,2.92-6.12,1.59-1.01,3.49-1.42,5.35-1.26.91.11,1.91.37,2.57,1.15.57.78.86,1.69,1.16,2.52.15.43.38.69.8.65.37.02.47-.4.54-.85.12-.88.26-1.85.74-2.68,1.01-1.62,2.7-2.56,3.47-4.17.42-.78.37-1.68.46-2.6.11-1.37.34-2.79,1.04-4,.59-1.28,2.02-1.97,3.09-2.71.35-.26.69-.56.8-.94.37-1.32.91-2.61,1.58-3.81.59-.97,1.28-2.14,2.52-2.36,1.62-.06,3.13.81,4.69.95.87.13,1.74-.2,1.99-1.11.59-1.68.35-3.56.9-5.37.65-1.38,2.26-1.93,3.66-1.67,1,.17,1.58,1.25,1.61,2.17.05.39.32,3.48.35,4.09.09.89.19,1.81.52,2.62.27.89,1.24,1.05,2.1,1.31.87.24,1.77.42,2.64.77.41.19.91.41,1.09.95.09.53-.03.96-.11,1.42-.27,1.33-.74,2.63-.81,3.98-.01.43.09.9.51.84,2.04-.57,3.93-2.38,4.9-4.25.22-1.39,1.4-2.43,2.48-3.21,1.05-.85,2.29-1.49,3.11-2.56,1.7-3.71,2-7.88,3.1-11.83,1.01-1.71,3.19-1.85,4.94-2.14,4.54-.46,9.16-.12,13.59.97,2.34.44,3.67,2.65,5.57,3.83.38.2.84.23,1.18-.03.67-.55,1.1-1.43,1.05-2.31-.04-.89-.43-1.73-.89-2.5-.98-1.5-2.12-2.97-3.55-4.06-1.45-1.24-3.37-1.11-5.15-.98-1.82.05-3.63.21-5.46.06-1.92-.07-3.22-1.83-4.21-3.27-.96-1.52-1.55-3.5-.82-5.27.72-1.73,2.29-2.91,3.91-3.72,3.28-1.56,7.06-2.3,10.66-1.56,2.7.41,5.36,1.04,8.05,1.51.88.12,1.84.38,2.62-.11,1.58-.91,2.38-2.71,3.91-3.77,1.62-.99,3.65-.47,5.17-1.59,1.58-.88,2.89-2.27,3.48-4.01.33-.84.59-1.72,1-2.54.38-.81,1.08-1.59,2.03-1.72.91-.16,1.84.02,2.71.25.86.24,1.85.32,2.52-.39,1.23-1.43.09-3.79,1.75-5.01.74-.56,1.62-.85,2.47-1.17.82-.3,1.81-.74,1.78-1.75-.01-.9.28-1.9,1.08-2.41.79-.49,1.79-.52,2.67-.28.44.18.7.61.9,1.01.98,1.99.67,4.68,2.31,6.32.35.3.81.37,1.26.36,0,0,1.36.02,1.36.02,0,0,5.46.08,5.46.08,1.81-.06,3.68.15,5.4-.47.86-.29,1.71-.61,2.54-.98.96-.52,2.22-.92,2.63-2.01,0,0,.1-.67.1-.67.07-.45.17-.9.27-1.34.46-1.73,1.09-3.62,2.74-4.55,1.95-1.16,4.16-1.9,5.93-3.35.33-.3.68-.66.7-1.13-.02.47-.37.83-.69,1.13-1.77,1.45-3.98,2.19-5.93,3.36-2.22,1.35-2.7,4.19-3.1,6.56-.39,1.1-1.69,1.52-2.64,2.03-1.66.72-3.39,1.45-5.23,1.43-.91.04-1.82.04-2.73.04,0,0-5.46-.08-5.46-.08,0,0-1.36-.02-1.36-.02-1.58.2-2.2-1.57-2.54-2.77-.37-1.31-.54-2.68-1.1-3.93-.52-1.38-2.37-1.36-3.48-.7-.78.5-1.06,1.47-1.05,2.36.03,1.04-.99,1.52-1.82,1.81-.85.32-1.72.62-2.45,1.16-.75.55-.95,1.52-1.02,2.4-.09.88-.05,1.89-.72,2.6-.67.72-1.73.67-2.6.42-.88-.23-1.78-.4-2.68-.24-1.99.43-2.27,2.6-2.96,4.2-.59,1.75-1.93,3.17-3.52,4.06-1.54,1.13-3.62.63-5.17,1.6-1.48,1.03-2.29,2.83-3.91,3.78-.83.52-1.81.24-2.7.13-2.69-.47-5.35-1.1-8.05-1.5-7.69-1.58-20.45,4.01-11.86,12.4.66.62,1.44,1.09,2.36,1.11,2.72.21,5.45-.2,8.18-.13,1.87.24,3.33,1.6,4.5,2.98,1.14,1.4,2.41,2.91,2.56,4.79.05.95-.39,1.88-1.13,2.48-.9.67-1.86-.21-2.52-.76-.68-.61-1.31-1.27-2.02-1.82-1.41-1.17-3.3-1.4-5.05-1.73-3.29-.55-13.52-1.6-15.59,1.62-.89,3.47-1.4,7.13-2.53,10.6-.26.88-.79,1.74-1.55,2.27-1.37,1.13-3.07,2.03-4.11,3.49-.29.4-.29.79-.46,1.25-.56,1.28-1.61,2.27-2.67,3.15-5.63,4.14-2.24-2.67-2.35-5.15-.11-.36-.53-.59-.92-.76-.82-.34-1.72-.51-2.6-.75-.86-.29-1.99-.46-2.3-1.48-.35-.88-.45-1.8-.54-2.71,0,0-.21-2.72-.21-2.72-.11-.85-.07-1.84-.51-2.58-.99-1.45-3.68-.62-4.29.8-.79,1.97.33,7.12-3.22,6.7-1.39-.15-2.63-.74-3.99-.92-.45-.06-.85-.06-1.21.17-1.78,1.35-2.56,3.67-3.23,5.74-.57,1.36-2.21,1.7-3.14,2.67-1.61,1.62-1.71,4.11-1.86,6.27-.23,2.49-2.73,3.72-3.86,5.56-.62.96-.51,2.18-.89,3.26-.27.57-1.02.58-1.47.22-.72-.92-.78-2.2-1.5-3.07-2.08-2.27-8.12-.64-9.02,2.21-.88,1.63-.56,3.76-1.86,5.16-.82.62-1.8.64-2.54,1.05-.84.42-1.03,1.26-1.06,2.15-.2,2.73-.55,5.45-.63,8.15.05,1.24-.34,2.79.32,3.86.87.99,2.27,1.34,3.51,1.66.88.19,1.75.3,2.62.12.93-.12,1.88-.56,2.82-.08.49.27.72.82.78,1.28.21,1.38-.04,2.78-.17,4.14-.15.67.09,1.55-.4,2.11-2.05,1.55-4.84,1.67-7.31,2-.49.11-1.1-.22-1.38-.62-.86-1.23-.84-2.68-.91-4.05-.39-2.17-2.24-3.87-4.04-4.97-.75-.3-1.74-.22-2.58-.22,0,0-2.73.06-2.73.06-1.12-.11-2.49.19-3.5-.55-.25-.18-.34-.62-.22-.88.62-1.34,1.94-1.98,2.63-3.18.81-1.44-.08-3.58-1.46-4.4-.72-.42-1.64-.6-2.39-.27-2.37,1.24-3.88,3.68-5.24,5.93-.37.68-.91,1.64-1.02,2.38,0,0-.05,2.73-.05,2.73l-.06,2.74c-.06.91-.15,1.83-.35,2.74-.12.46-.2.92-.57,1.37-.19.25-.68.33-.93.14-.28-.17-.42-.41-.53-.63-.59-1.33-.62-2.65-1.15-3.94-.18-.39-.4-.72-.73-.67-2.7.19-5.48.18-8.14.55-1.74.22-3.6.32-4.98,1.55-1.97,1.69-3.39,4.28-3.63,6.88-.04,2.68,1.94,4.99,3.9,6.57,1.51.81,3.51.69,5.21.84,1.09.12,3.67.02,4.81.31.24.07.48.08.77.37.29.48-.06.78-.22.95-.94.83-3.37,1.28-4.55,1.71-.42.14-.86.29-1.19.49-.48.41-2.59,2.11-3.14,2.58-1.14.84-2.18,1.85-3.65,2.11-1.08.19-1.75-.83-2.42-1.41-1.07-.81-2.47-.69-3.77-.73-2.2.05-4.54.17-6.56,1.04-.36.18-.59.48-.78.87-.99,2.15-.78,4.39-1.37,6.65-1.29,1.9-3.42,3.15-4.82,4.9-1.1,1.39-1.26,3.3-1.38,5-.09,1.67.48,3.77,2.54,3.25,2.65-.76,3.45-4.07,5.48-5.71,2.36-1.68,5.43-1.31,8.14-1.33,0,0,1.36.06,1.36.06.24,0,.44.03.57-.03,1.31-.76,1.9-2.47,3.18-3.4,2.74-1.67,5.23-3.56,7.3-6.02,1.75-1.63,3.92-2.59,6.2-3.08,1.44-.06,2.58-.44,3.99-.79.91-.23,2.01-.29,2.85.19.85.42,1.57,1.02,2.36,1.2.73.22,1.45-.46,2.15-1,1.41-1.19,3.19-2.39,5.15-1.98,1.43.29,2.72,1.16,3.48,2.41.23.44.46.89.33,1.53-.1.33-.37.54-.6.66-1.54.63-3.27.4-4.88.35,0,0-1.35-.07-1.35-.07-1.81-.06-3.39,1.2-5.21,1.35-2.31.12-3.39,2.57-5.06,3.96-.96,1.44-1.04,3.36-1.2,5.07-.09,1.08-.74,1.84-1.28,2.57-4.41,5.12-4.84,5.5-2.96,11.96.2.9.37,1.85.21,2.82-.08.48-.26,1.01-.7,1.38-.44.37-1,.45-1.48.45-.97,0-1.9-.4-2.66-.31-1.9.35-4.52,1.42-4.86,3.55-.14,4.1-.25,8.17-.48,12.28,0,0-.06,1.37-.06,1.37,0,0-.03.68-.03.68-.09,1.35-1.78,1.76-2.81,2.15-3.3,1.22-7.38.98-10.1,3.37-.84.89-1.47,2.29-2.04,3.39-.93,3.04-.26,6.26-.48,9.41-.03.25-.03.47-.19.79-.56.74-1.47.48-2.2.61-.89.05-1.83.08-2.5.47-.7.36-.66,1.25-.4,2.08.54,1.66,1.54,3.21,2.41,4.81.7,1.43,1.85,3.02,1.47,4.71-1.56,2.95-5.3,3.63-7.51,5.87-.12.19-.13.16-.11.43,0,1.15.54,2.2.57,3.36-.28,2.05-1.46,3.89-1.69,5.94-.39,2.8-2.76,4.86-4.34,7.02-.55.7-1.17,1.42-1.54,2.15-.29.71-.25,1.66-.18,2.53,0,0,.13,1.36.13,1.36.07.47.03,1.22-.38,1.54-1.42,1.19-3.24,1.75-2.8,3.89.09.88.22,1.88-.1,2.84-.28.96-1.04,1.6-1.73,2.26-1.85,1.97-3.39,4.22-4.86,6.49-.83,1.41-2.02,3.07-2.36,4.68-.19,2.79-.75,5.41-.98,8.16-.13.9-.03,1.83-.05,2.72-.39,2.51-1.08,5.16-2.38,7.32-1.42,1.27-3.43.52-4.87-.15-1.73-.67-3.93-.98-5.64-.18-.16.1-.16.17-.39.45-.98.97-2.13.92-3.09,1.54-1.23,1.59-1.6,3.69-2.88,5.3-1.4,1.76-3.98,2.35-4.9,4.47-.32.8-.44,1.71-.88,2.61-.46.91-1.34,1.39-2.1,1.96-2.56,1.46-2.7,4.23-3.36,6.89-.19.64-.7.91-1.09,1.17-1.55.9-3.44,1.25-4.87,2.3-.34.26-.4.57-.48.98-.2,1.15-.18,2.8-.13,4.02,0,0,.02.68.02.68,0,.26.04.38-.02.76-.5,1.81-6.32,4.43-7.68,2.3-.94-1.12-.86-2.61-1.77-3.58-2.78-1.87-8.6-1.94-11.13.31-1.39,1.21-1.97,3.2-3.82,3.99-.46.2-1.01.24-1.44.29,0,0-1.34.16-1.34.16-1.63.22-3.78.37-5.32.86-.77.23-1.7.48-2.18,1.11-.72,1.01-.9,2.45-1.09,3.71-.08.47-.08.87-.3,1.44-.19.36-.47.48-.7.6-1.01.48-2.34.47-3.41.7,0,0-.67.1-.67.1-.12.02-.28.13-.43.26-1.22,1.19-2.11,2.88-2.87,4.42-.28.95-.94,1.75-1.78,2.25-1.18.75-2.6,1.12-3.89,1.46-1.22.42-1.92,1.54-2.24,2.79-.44,1.7-.34,3.49-.28,5.33,0,.41.1.74.34,1.03.39.54,1.23.79,1.5,1.55.11.33.06.64,0,.88-.32,1.55-2.26.76-3.31,1.03-4.08,1.65-8.25,5.17-11.98,7.57-1.35.96-3.16,2.12-4.31,3.25-.41.42-.94.82-1.02,1.4-.06,1.15-.06,2.26-.2,3.42-.17,1.28-.55,3.39-2.2,3.64-.52.15-1.22.03-1.61-.38-.72-.75-.83-1.36-1.93-1.48-3.4-.66-7.09-2.2-10.56-1.63-1.77.29-2.83,1.76-2.59,3.53.14,1.85,1.4,3.11,2.33,4.69.59.9.79,2.96-.86,2.6-2.35-.7-5.56-1.66-6.93.96-.37.74-.53,1.61-.56,2.47-.19.6.89.8,1.72.99.98.27,1.91.24,2.75,1.02,1.33,1.84-2.37,4.45-2.8,6.26-.31,1.39-.04,3.66,1.12,4.59.37.26.76.16,1.22.35,1.19.41,1.21,1.85.95,2.83-.75,1.7-2.58,2.85-3.87,4.12-2.02,1.69-4.23,3.57-6.27,5.25-1.89,1.77-1.65,5-.97,7.26.67,1.72,2.41,2.25,4.06,2.82,2.29.58,2.79,2.72,2.57,4.77,0,.88-.36,1.69-.04,2.53.57,1.36,1.61,3.57,2.23,4.97,1.5,2.52-1.8,3.29-3.53,3.46-2.4.62-4.96,2.36-5.39,4.94-.52,2.6-.34,5.38-.15,8.04.08.87.07,1.72.49,2.5.79,1.49,2.3,2.56,3.78,3.56.79.56,1.65.99,2.25,1.79.84,1.35.62,2.75.82,4.16.56,2.08.74,4.66.77,6.82.12.47-.15,1.26-.58,1.55-.43.35-.87.51-1.2.74-.75.45-.7,1.35-.9,2.13-.17.9-.37,1.82-.74,2.71-.64,1.8-2.4,2.89-3.54,4.25-2.69,3.38-1.72,9.07,1.89,11.44.17.1.35.17.46.18,2.41-.02,4.95-.26,7.23-1.01,1.02-.36,2-.81,2.63-1.65.39-.62.82-1.22,1.42-1.63,1.67-1.21,4.93-1.77,6.2.33.5,1.67-.13,3.38-.53,4.98-.36,1.12-.71,2.26-1.36,3.27-.14.24-.53.52-.82.54-.67.1-1.12-.14-1.56-.28-1.67-.68-3.32-1.2-5.12-1.11-5.68.25-5.89,2.78-6.84,7.69,0,0-.15.68-.15.68-.03.16-.03.31,0,.46.18.61,1,1.11,1.76,1.5,1.19.72,2.96.92,3.72,2.26.41,3.89,1.29,7.65,1.64,11.54,1.1,3.57,3.45,6.81,5.71,9.77.56.65,1.18,1.44,1.81,1.69,1.18.42,2.67.35,3.97.64.57.14,1.29.41,1.36,1.17.03.37-.15.7-.17.8-.12.58-.02,1.22.11,1.82.55,1.95,1.37,4.3,3.11,5.39.22.1.65.01,1.05-.12,2.53-1.07,5.58-1.93,8.22-.61,5.38,3.12,11.74,5.01,17.98,4.83,2.88-.43,2.79-3.9,4.31-6.04.97-1.84,3.19-2.5,5.1-2.32,1.28.02,2.68.42,3.84.07,3.03-2.59,4.98-6.77,8.8-8.48,1.86-.77,3.79-.47,5.42-.93,2.73-.62,4.39-2.58,4.2-5.44-.07-.73.12-1.82-.26-2.42-.71-1.24-4.52-2.69-2.98-4.63.94-.62,1.98-.38,3-.37,1.3.05,2.65.25,3.83-.2,1.11-.56,1.07-1.98,1.03-3.16-.07-1.35-.4-2.68-.51-4.07-.08-.53.21-1.13.49-1.56,1.33-1.75,3.07-3.06,5.11-3.83.75-.34,1.78.32,2.26.73,3.85,3.27,8.35,1.31,11.26-2.23.54-.65,1.34-1.15,1.7-1.92,1.49-4.23,0-9,.35-13.4.16-2.36,2.04-3.68,4.31-3.32.62.12.72.52.85.73.63,1.55.68,3.23.85,4.86.24,2.65.16,5.56.29,8.22.2,1.97.46,4.42,1.65,6.05,2.07.74,4.42-.35,6.65.41.26.11.58.31.75.65.18.37.15.66.16.89-.14,3.21-1.17,6.33-1.54,9.48-.75,3.36,2.65,5.84,2.16,9.18-.36,1.38-1.3,2.51-1.8,3.76-1.56,3.34,2.04,3.69,3.72,5.63,3.83,3.96,6.08,9.34,8.57,14.12,1.46,5.43-.18,11.04.4,16.44.1.88.28,1.67.74,2.38,1.43,2.26,3.85,3.59,6.03,5.14.79.59,1.63,1.1,2.12,2.05.78,1.89.32,3.71.47,5.59.06.62.08,1.21.41,1.7.06.09.29.31.43.52,1.34,2.04,1.23,4.45,1.82,6.68.11.33.26.45.63.56.75.18,1.8.22,2.7.62,1.83.74,3.04,2.37,4.05,3.96,1.45,2.39,2.57,5,2.98,7.79.23.94-.24,2.35-1.18,2.82-1.75,1.08-3.7,1.08-5.21,1.77-.8.35-.82.99-.6,1.71.37,1.17,1.6,2.18,2.17,3.4.61,1.54-1.05,3.02-2.09,3.89-.88.73-2.78,1.96-3.65.69-.4-.58-.61-1.3-.95-1.87-.7-1.37-2.65-2.12-4.06-1.5-1.37.84-1.61,3-2.05,4.5-.65,2.56-1.16,6.15-4.1,7.2-.25.09-.5.13-.75.17l-.67.08c-4.24.28-6.85,3.75-9.39,6.78-3.49,4.73-10.01,4.9-15.37,4.92-1.84-.03-3.67-.15-5.49-.33-.92-.12-1.94-.14-2.81-.5-.97-.38-1.73-1.22-2.12-2.12-.79-1.83-.77-3.74-.8-5.56.07-1.29-.12-3.04.21-4.21.85-2.65,4.15-2.43,6.33-2.79,2.67-.3,5.4-.6,7.92-1.46,4.19-1.59,6.61-6.01,7.13-10.3.22-2.28.37-5.78-2.55-6.25-3.43-.96-9.99,1.41-11.62-2.92-1.37-5.86.04-11.96.48-17.84.36-3.62.4-7.29.95-10.88.46-4.82,1.65-12.28-5.18-12.45-2.44-.07-5.48.38-7.07,2.39-2.23,3.91-3.57,8.34-5.66,12.34-1.84,3.57-3.53,6.91-8.23,6.65-5.43.1-10.84-1.84-16.23-1.2-3.29.87-5.13,4.95-6.71,7.72-1.63,3.22-2.97,6.6-4.07,10.04-.78,2.57-1.61,5.18-1.46,7.88.07,8.95.17,21.07.24,30.02,0,0,.02,2.73.02,2.73,0,.93-.03,1.77.37,2.47.87,1.46,2.91,1.76,4.47,2.3,1.79.54,3.63,1.49,4.64,3.16,1.67,3.4,1.32,7.28,1.45,10.95-.01,3.65-.19,7.29-.32,10.93-.06,1.81-.14,3.64-.08,5.42-.11,1.77,1.12,3.15,2.25,4.54,2,2.6,6.78,6.27,3.56,8.22-2.37,1.3-7.3,1.09-6.03,5.03,1.07,3.49,3.69,6.25,5.01,9.67.06.24.15.53.01.92-.18.45-.7.54-.95.51-4.46-1.37-8.96-.18-13.48.41-1.57.06-2.49-1.55-3.56-2.32-2.78-2.39-6.82-1.89-9.72.07-2.75,1.5-4.99,4.58-8.3,4.8-1.37.09-2.09,1.22-3.14,2.1-1.43,1.31-3.81,1.73-5.53.74-.89-.58-1.35-1.5-1.75-2.31-.4-.83-.75-1.65-1.3-2.27-1.06-1.27-3.17-1.4-4.58-.76-2.32,1.35-2.36,4.56-2.7,7.01-.36,2.71-.12,5.7-1.69,8.13-3.9,4.28-18.83-2.28-24.13.7-5.24,2.49-9.06,12.06-15.65,9.81-2.48-1.15-4.08-3.83-6.66-4.62-3.86-1.41-6.52,1.74-7.37,5.22-.47,1.71-.72,3.52-.63,5.28.04.44.06.86.27,1.14,1.7,2.4,4.66,3.95,5.81,6.76.07.26.1.6-.05.9-.69,1.1-1.82.82-2.82.93-2.6,0-5.37.96-6.81,3.21-.91,1.41-1.4,3.28-.84,4.88.47,1.21,1.51,2.22,2.21,3.36.24.41.47.93.41,1.5-.15,1.14-1.15,1.93-2.22,1.97-1.01.03-1.89-.22-2.78-.38-1.76-.34-3.58-.57-5.32-.46-3.52.36-6.44,3.21-8.01,6.24-.42.79-.6,1.58-.62,2.49,0,0-.16,2.73-.16,2.73-.16,1.82-.29,3.68-1.09,5.45-.31.66-.87,1.38-1.66,1.55-2.03.33-4.11-.75-6.03.06-1.5.67-2.65,2.34-2.74,4-.19,1.81.79,3.99-.75,5.46-3.93,3.13-9.28-.09-13.46.39-2.8.13-4.36,2.86-5.07,5.28-.56,1.29-.63,3.06-2.17,3.67-1.57.26-2.76-1-3.87-1.74-1.37-.95-3.27-1.54-4.7-.44-1.06.74-1.77,2.12-2.91,2.88-.82.6-2.17.64-2.91-.1-1.06-.91-1.71-2.19-2.68-3.14-1.19-1.3-2.84-2.09-4.6-2.18-3.54-.22-7.11,1.35-9.53,3.92-1.2,1.3-2.21,2.84-2.12,4.61-.05,2.22.99,4.53.5,6.85-.11.46-.35,1-.78,1.33-.87.66-1.87.66-2.66.94-.84.22-1.23.93-1.17,1.77.03.78.6,1.49,1.24,2.08,1.89,1.85,4.94,3.08,5.69,5.93.25,2.74.19,5.52.15,8.25,0,0-.04,1.36-.04,1.36,0,0-.02.7-.02.7-.08,1.29-1.42,2.21-2.47,2.58-1.32.55-2.75.58-4.12.59-.4.02-.75.17-1.04.44-1.17,1.22-1.3,3.34-2.1,4.87-.4.87-1.22,1.72-2.24,1.84-1,.2-2.07-.24-2.75-.92-1.83-1.81-2.92-5.19-5.94-4.17-1.66.61-2.38,2.55-3.42,3.91-.29.37-.63.75-1.1,1-.51.26-.96.23-1.41.32,0,0-2.72.4-2.72.4-.9.14-1.83.13-2.74.2,0,0-2.72.16-2.72.16-.82.07-1.65.46-2.43.87-3.12,1.78-5.84,4.29-8.43,6.76-1.5,1.09-1.74,2.92-1.86,4.71-.28,2.25.34,4.75-.85,6.87-1.02,1.24-3.06.32-4.1-.45-2.99-1.89-4.83-5.88-8.77-5.67-3.59-.03-7.18.95-10.92.59-.92-.12-1.91-.38-2.65-1.08-1.95-2.23-.88-5.5-1.1-8.13-.11-3.43-.49-7.47-3.42-9.73-3.81-3-10.95-4.21-14.84-.78-1.13,1.3-1.55,3.21-1.83,4.9-.63,5.23-.56,11.11,2.26,15.68.56.72,1.18,1.13,2.13,1.27.93.25,1.78.8,2.4,1.54,1.81,2.26,2,5.21,2.07,7.96,0,0,0,1.37,0,1.37.13,1.48-1.48,2.54-2.27,3.47-1.85,2.24.08,5.09.04,7.72,0,.47-.02.98-.26,1.46-.23.51-.78.79-1.22.92-1.94.58-3.72-.77-5.13-1.95-.75-.76-.93-1.71-1.2-2.57-.5-1.57-.93-3.62-2.66-4.25-.78-.31-1.69-.27-2.57-.18-2.27.17-4.07,1.75-5.48,3.42-1.62,1.65-4.43,1.64-6.57,1.98-1.82.17-3.66.24-5.5.06-.92-.1-1.84-.25-2.73-.61-.97-.38-1.51-1.3-1.91-2.1-1.54-3.39-1.95-7.08-3.28-10.42-.52-1.15-1.11-2.55-2.57-2.33-4.08.32-7.82,2.23-11.78,3.2,0,0-5.4.95-5.4.95,0,0-5.46.42-5.46.42-8.87.96-18.5-4.23-26.64,1-3.06,1.88-4.41,6.02-2.76,9.29,1.31,2.92,3.91,4.94,6.17,7.13.38.47.28,1.03.24,1.47-.17,1.35-.74,2.63-.27,3.9.8,1.04,2.31,1.12,3.52,1.55.65.23,1.46.49,1.8,1.19.38,1.16-.33,2.36-.51,3.46-.43,1.67-.7,3.67.63,4.95.64.58,1.49.87,2.36,1.06,3.62.74,7.17-.29,10.8-.61.46,0,.95-.03,1.44.25.25.15.38.43.47.63.65,2.03-.28,4.09.02,6.16.16,2.74,2.41,4.78,4.4,6.44,1.4,1.05,2.95,2.2,4.71,2.41,5.18.26,11.68-1.6,15.54,3.12.88,1.04,1.92,2.2,1.93,3.65-.49,4.22-2.87,7.99.37,11.62,2.69,3.66,5.93,6.89,8.86,10.36,1.14,1.5.39,3.65,1.35,5.24.4.8,1.05,1.41,1.8,1.93,4.06,3.69,7.37,8.08,10.73,12.39,1.07,1.48,2.21,2.89,3.07,4.55.12.19.13.6-.12.75-.6.43-1.35.41-2.04.49-.91.07-1.82.07-2.72.14-.43.05-.95.08-1.22.31-.21.3-.19.81-.17,1.24.07.89.27,1.78.55,2.64.29.85.65,1.69,1.19,2.4.57.67,1.4,1.18,1.91,1.93,1.68,2.17,3.12,4.53,4.11,7.09.3.86.64,1.86.16,2.72-1.04,1.67-3.28,1.57-4.94,2.16-2.53,1.02-3.41,4.25-3.85,6.71-.48,2.74,1.14,5.28,2.74,7.39.84,1.07,1.74,2.1,2.79,2.97.37.31.56.78.66,1.23.17.92.05,1.84-.07,2.74,0,0-.44,2.69-.44,2.69-.21,1.83-.19,3.66-1.13,5.31-1.51,3.29-3.63,6.4-3.96,10.07-.14,1.81.22,3.62.8,5.34.56,1.71,1.24,3.49,1.01,5.34-.21,1.84-1.13,3.5-2.19,4.97-.94,1.54-2.6,2.68-2.92,4.51-.49,2.69-1.65,5.23-2.99,7.59,0,0-1.33,2.39-1.33,2.39,0,0-2.66,4.77-2.66,4.77-1.82,3.15-3.85,6.18-5.67,9.32-.78,1.67-.24,3.67-1.27,5.26-.97,1.57-2.47,2.7-3.99,3.67-3.1,1.87-6.72,3.21-10.37,2.73-1.81-.25-3.54-.85-5.32-1.23-7.22-1.75-14.45,1.28-21.68,1.2h0Z"/>
</svg>